# xmcd CD database file
#
# Track frame offsets:
#	150
#	13120
#	24285
#	41387
#	57077
#	75147
#	89325
#	105807
#	120122
#	133637
#	149167
#	180527
#	198275
#	212047
#	225890
#	245797
#	261777
#	288560
#	311245
#	338722
#
# Disc length: 4757 seconds
#
# Revision: 17
# Processed by: cddbd v1.5.1PL2 Copyright (c) Steve Scherf et al.
# Submitted via: CDex 1.60beta1-cs1
#
DISCID=06129314
DTITLE=Various Artist - Concert For George - CD 2
DYEAR=2003
DGENRE=Blues
TTITLE0=Jeff Lynne - I Want To Tell You
TTITLE1=Eric Clapton - If I Needed Someone
TTITLE2=Gary Brooker - Old Brown Shoe
TTITLE3=Jeff Lynne - Give Me Love (Give Me Peace On Earth)
TTITLE4=Eric Clapton - Beware Of Darkness
TTITLE5=Joe Brown - Here Comes The Sun
TTITLE6=Joe Brown - That's The Way It Goes
TTITLE7=Tom Petty and The Heartbreakers - Taxman
TTITLE8=Tom Petty and The Heartbreakers - I Need You
TTITLE9=Tom Petty and The Heartbreakers, Jeff Lynne and Dhani Harrison - Handle With Care
TTITLE10=Billy Preston - Isn't It A Pity
TTITLE11=Ringo Starr - Photograph
TTITLE12=Ringo Starr - Honey Don't
TTITLE13=Paul McCartney - For You Blue
TTITLE14=Paul McCartney and Eric Clapton - Something
TTITLE15=Paul McCartney - All Things Must Pass
TTITLE16=Paul McCartney and Eric Clapton - While My Guitar Gently Wheeps
TTITLE17=Billy Preston - My Sweet Lord
TTITLE18=Eric Clapton and Band - Wah Wah
TTITLE19=Joe Brown - I'll See You In My Dreams
EXTD=YEAR: 2003
EXTT0=
EXTT1=
EXTT2=
EXTT3=
EXTT4=
EXTT5=
EXTT6=
EXTT7=
EXTT8=
EXTT9=
EXTT10=
EXTT11=
EXTT12=
EXTT13=
EXTT14=
EXTT15=
EXTT16=
EXTT17=
EXTT18=
EXTT19=
PLAYORDER=
